<?xml version="1.0" encoding="UTF-8"?>
<svg version="1.1" xmlns="http://www.w3.org/2000/svg" width="309" height="94">
<path d="M0 0 C2.328125 2.015625 2.328125 2.015625 4 4 C4 4.66 4 5.32 4 6 C4.556875 5.52949219 5.11375 5.05898438 5.6875 4.57421875 C12.2441304 -0.77519423 18.07966775 -4.68326951 26.85546875 -4.28515625 C33.90578311 -3.34768276 39.4582878 -1.74393014 44 4 C47.25955539 8.52716027 49.12956048 11.78339116 49.11352539 17.37963867 C49.11341209 18.70066841 49.11341209 18.70066841 49.11329651 20.04838562 C49.10813522 20.99534805 49.10297394 21.94231049 49.09765625 22.91796875 C49.0962413 23.89034988 49.09482635 24.86273102 49.09336853 25.86457825 C49.08776817 28.97225004 49.07521562 32.07984996 49.0625 35.1875 C49.05748505 37.29361875 49.05292213 39.39973863 49.04882812 41.50585938 C49.03779862 46.67060064 49.02053375 51.83528813 49 57 C43.06 57 37.12 57 31 57 C30.96261719 54.54304688 30.92523438 52.08609375 30.88671875 49.5546875 C30.84043964 47.16169594 30.78922938 44.76885685 30.73754883 42.37597656 C30.70439982 40.71949616 30.67633691 39.06290554 30.65356445 37.40625 C30.61983268 35.01775366 30.56751041 32.63025829 30.51171875 30.2421875 C30.50532883 29.50757294 30.4989389 28.77295837 30.49235535 28.01608276 C30.35912656 23.30274576 29.53001338 19.98847412 27 16 C23.29300251 13.52866834 20.29857015 13.44696758 16 14 C13.07201057 15.15412336 13.07201057 15.15412336 11 17 C9.73374576 20.79876271 9.76701453 24.42421926 9.68359375 28.38671875 C9.66281265 29.20372757 9.64203156 30.02073639 9.62062073 30.86250305 C9.55526921 33.47075034 9.49630727 36.07909775 9.4375 38.6875 C9.39430108 40.45639054 9.35068635 42.22527097 9.30664062 43.99414062 C9.19882044 48.32932597 9.09964028 52.66458802 9 57 C2.73 57 -3.54 57 -10 57 C-10.04898438 54.47085938 -10.09796875 51.94171875 -10.1484375 49.3359375 C-10.20252164 46.87347747 -10.25979983 44.41111088 -10.31738281 41.94873047 C-10.35555219 40.24372381 -10.39042566 38.53863994 -10.421875 36.83349609 C-10.46778836 34.37569674 -10.52573769 31.91842348 -10.5859375 29.4609375 C-10.59748871 28.70444916 -10.60903992 27.94796082 -10.62094116 27.16854858 C-10.74222892 22.77175964 -11.27133184 19.05919219 -13 15 C-14.66682687 13.95324287 -14.66682687 13.95324287 -17 14 C-18.299375 13.896875 -19.59875 13.79375 -20.9375 13.6875 C-24.21318431 13.71805676 -25.01713057 14.01093441 -27.9375 15.875 C-31.63196682 19.68142036 -31.21068138 23.23446452 -31.31640625 28.2890625 C-31.33718735 29.10748627 -31.35796844 29.92591003 -31.37937927 30.76913452 C-31.44484812 33.38766966 -31.50374726 36.00630639 -31.5625 38.625 C-31.60568776 40.39844807 -31.64930214 42.17188581 -31.69335938 43.9453125 C-31.80133099 48.29677232 -31.90042378 52.64830747 -32 57 C-38.27 57 -44.54 57 -51 57 C-51 37.2 -51 17.4 -51 -3 C-44.73 -3 -38.46 -3 -32 -3 C-31.67 -1.35 -31.34 0.3 -31 2 C-30.319375 1.38125 -29.63875 0.7625 -28.9375 0.125 C-19.8602604 -6.44151375 -9.45412699 -4.75642414 0 0 Z " fill="#00271B" transform="translate(135,19)"/>
<path d="M0 0 C6.05002321 5.04540681 9.23052222 9.91812915 11.7421875 17.453125 C11.7421875 22.073125 11.7421875 26.693125 11.7421875 31.453125 C-1.7878125 31.453125 -15.3178125 31.453125 -29.2578125 31.453125 C-26.74228925 37.24326932 -26.74228925 37.24326932 -22.2578125 40.453125 C-18.07238671 40.82682373 -14.76755398 40.92294308 -11.2578125 38.453125 C-10.5978125 37.463125 -9.9378125 36.473125 -9.2578125 35.453125 C-7.19482422 35.11254883 -7.19482422 35.11254883 -4.6875 35.16015625 C-3.79160156 35.16982422 -2.89570313 35.17949219 -1.97265625 35.18945312 C-0.56693359 35.2271582 -0.56693359 35.2271582 0.8671875 35.265625 C2.28451172 35.28592773 2.28451172 35.28592773 3.73046875 35.30664062 C6.06827529 35.34206194 8.40494987 35.39145229 10.7421875 35.453125 C10.30321338 36.87737737 9.85471152 38.2986949 9.40234375 39.71875 C9.15363525 40.51055664 8.90492676 41.30236328 8.64868164 42.11816406 C6.17278268 48.49562102 1.10929582 52.76704821 -5.01953125 55.56640625 C-13.82954782 57.97879921 -24.77473566 58.21876945 -33.1328125 54.265625 C-39.96786037 50.04118569 -44.87357224 44.46742177 -47.5078125 36.828125 C-49.56968958 27.09457913 -48.93868736 16.97779103 -44.00390625 8.23046875 C-39.83636749 2.15517382 -34.76113556 -1.13207146 -28.0078125 -3.859375 C-18.53732154 -5.59563168 -8.20232107 -5.61958329 0 0 Z M-25.77734375 12.95703125 C-27.88831418 14.86958891 -27.88831418 14.86958891 -29.2578125 20.453125 C-21.9978125 20.453125 -14.7378125 20.453125 -7.2578125 20.453125 C-8.89858371 14.44206529 -8.89858371 14.44206529 -13.2578125 11.453125 C-18.39345324 9.99964177 -21.27319381 10.47304924 -25.77734375 12.95703125 Z " fill="#00271B" transform="translate(237.2578125,19.546875)"/>
<path d="M0 0 C3.82043417 3.03581525 7.30122611 6.34683673 9 11 C9.0777346 13.33203812 9.08967728 15.66839059 9 18 C6.22754986 18.13487595 3.46162912 18.23400807 0.6875 18.3125 C-0.09818359 18.35439453 -0.88386719 18.39628906 -1.69335938 18.43945312 C-3.90093759 18.48642287 -5.84367715 18.48276745 -8 18 C-9.82421875 15.53515625 -9.82421875 15.53515625 -11 13 C-14.89335307 12.02666173 -17.17853346 11.72617782 -21 13 C-20.67 14.65 -20.34 16.3 -20 18 C-19.40050537 18.18062988 -18.80101074 18.36125977 -18.18334961 18.54736328 C-15.42886266 19.38856186 -12.6834949 20.25649929 -9.9375 21.125 C-8.99455078 21.40859375 -8.05160156 21.6921875 -7.08007812 21.984375 C-0.99586403 23.93471541 3.66137809 26.21789722 8 31 C10.43657379 35.87314758 9.49122662 42.65933846 9 48 C7.15586954 52.81714452 2.73627891 54.99702737 -1.69482422 57.15991211 C-5.776995 58.64760006 -9.76419213 58.53791262 -14.0625 58.4375 C-15.35124023 58.44813477 -15.35124023 58.44813477 -16.66601562 58.45898438 C-24.71029303 58.37909468 -30.58181124 55.99192459 -37 51 C-40.84865376 46.31920488 -41.08550279 44.40148049 -42 38 C-35.73 38 -29.46 38 -23 38 C-22.34 39.32 -21.68 40.64 -21 42 C-18.59454362 43.20272819 -17.05003047 43.10071472 -14.375 43.0625 C-13.14910156 43.04896484 -13.14910156 43.04896484 -11.8984375 43.03515625 C-11.27195312 43.02355469 -10.64546875 43.01195312 -10 43 C-9.67 41.35 -9.34 39.7 -9 38 C-9.69561035 37.78907715 -10.3912207 37.5781543 -11.10791016 37.36083984 C-14.28659776 36.38494092 -17.45550046 35.38031992 -20.625 34.375 C-21.71941406 34.04371094 -22.81382812 33.71242187 -23.94140625 33.37109375 C-30.47450109 31.2725845 -34.72128896 29.44695979 -39 24 C-40.61371538 19.15885385 -40.97689633 13.81388617 -39.28125 8.9296875 C-35.92601306 2.67920577 -31.26899019 -0.45507298 -24.65625 -2.4609375 C-16.57721057 -4.10050727 -7.35166502 -4.09858908 0 0 Z " fill="#00271B" transform="translate(293,18)"/>
<path d="M0 0 C0 6.6 0 13.2 0 20 C-3.25520833 20.390625 -6.51041667 20.78125 -9.765625 21.171875 C-13.39704499 22.10165886 -14.72341651 23.07296408 -17 26 C-18.15839043 29.47517129 -18.22801218 32.6727002 -18.31640625 36.29296875 C-18.33718735 36.99899734 -18.35796844 37.70502594 -18.37937927 38.43244934 C-18.44467491 40.68403551 -18.50366647 42.93573662 -18.5625 45.1875 C-18.60570425 46.7155066 -18.64931916 48.24350164 -18.69335938 49.77148438 C-18.8011075 53.51420689 -18.90032855 57.25701879 -19 61 C-25.27 61 -31.54 61 -38 61 C-38 41.2 -38 21.4 -38 1 C-31.73 1 -25.46 1 -19 1 C-18.67 3.31 -18.34 5.62 -18 8 C-17.57589844 7.59007812 -17.15179688 7.18015625 -16.71484375 6.7578125 C-11.51571799 1.98147279 -7.22032836 0 0 0 Z " fill="#00271B" transform="translate(57,15)"/>
<path d="M0 0 C6.27 0 12.54 0 19 0 C19 19.8 19 39.6 19 60 C12.73 60 6.46 60 0 60 C0 40.2 0 20.4 0 0 Z " fill="#00271B" transform="translate(61,16)"/>
</svg>