<svg width="60" height="59" viewBox="0 0 60 59" fill="none" xmlns="http://www.w3.org/2000/svg">
<path d="M47.1297 17.0194C47.021 15.7775 46.0235 14.8379 44.8085 14.8379H39.026V13.9346C39.026 12.4997 37.8222 11.3306 36.3447 11.3306H17.486C16.0085 11.3306 14.8047 12.4997 14.8047 13.9346V14.8379H8.77472C7.55972 14.8379 6.56222 15.7739 6.45347 17.0194C6.10097 21.0949 6.95222 24.3327 8.98472 26.6454C11.1897 29.1584 14.0922 29.7557 15.0372 29.8868C15.941 33.2375 19.2522 35.929 23.531 36.8723V41.2719C20.9622 41.8619 18.6185 43.1257 16.9235 44.903C16.2935 45.5622 15.9485 46.4254 15.9485 47.3322V47.7037C15.9485 48.8255 16.886 49.7396 18.041 49.7396H35.6585C36.8135 49.7396 37.751 48.8255 37.751 47.7037C37.751 46.429 37.2522 45.2381 36.3447 44.3458C34.9235 42.9472 32.9885 41.9311 30.7797 41.3775V36.7484C34.826 35.7068 37.9235 33.0845 38.7747 29.8504C39.896 29.661 42.551 28.9836 44.606 26.6417C46.6385 24.329 47.4897 21.0876 47.1372 17.0158L47.1297 17.0194ZM10.391 25.4435C8.70722 23.5132 8.01347 20.7307 8.32097 17.1724C8.34347 16.9248 8.49347 16.6589 8.77472 16.6589H14.8047V27.9128C14.801 27.9383 14.7972 27.9638 14.7972 27.9893C13.7847 27.7671 11.8722 27.1371 10.391 25.4435ZM35.8685 47.7037C35.8685 47.8239 35.771 47.9186 35.651 47.9186H18.0372C17.9172 47.9186 17.8197 47.8203 17.8197 47.7037V47.3322C17.8197 46.8843 17.9885 46.4618 18.296 46.1413C20.3135 44.0325 23.5685 42.7178 26.7897 42.7178C30.011 42.7178 33.1272 43.7776 35.006 45.6241C35.5647 46.1741 35.8722 46.9098 35.8722 47.7001L35.8685 47.7037ZM28.8972 41.0278C28.211 40.9404 27.506 40.8967 26.7897 40.8967C26.3247 40.8967 25.8635 40.9186 25.406 40.9623V37.16C25.8972 37.2073 26.3922 37.2328 26.8985 37.2328C27.581 37.2328 28.2485 37.1891 28.8972 37.1054V41.0242V41.0278ZM26.8985 35.4154C21.3035 35.4154 16.7435 32.1595 16.6685 28.1423C16.6685 28.1095 16.6797 28.0804 16.6797 28.0439V13.9346C16.6797 13.5049 17.0397 13.1516 17.486 13.1516H36.3447C36.7872 13.1516 37.151 13.5012 37.151 13.9346V27.8582C37.1397 27.9201 37.1322 27.982 37.1322 28.0439C37.1322 32.1085 32.5422 35.4191 26.8985 35.4191V35.4154ZM43.1922 25.4399C41.8235 27.0132 40.0797 27.6652 39.026 27.931V16.6552H44.8085C45.0897 16.6552 45.2397 16.9211 45.2622 17.1688C45.5735 20.7271 44.876 23.5096 43.1922 25.4399Z" fill="white"/>
<path d="M25.5554 29.5969C26.7269 28.459 26.7269 26.6142 25.5554 25.4764C24.3838 24.3385 22.4843 24.3385 21.3127 25.4764C20.1412 26.6142 20.1412 28.459 21.3127 29.5969C22.4843 30.7347 24.3838 30.7347 25.5554 29.5969Z" fill="#E58325"/>
</svg>
