<svg width="40" height="39" viewBox="0 0 40 39" fill="none" xmlns="http://www.w3.org/2000/svg">
<g clip-path="url(#clip0_249_7248)">
<path d="M39.3264 8.57458C39.6514 7.54929 39.059 6.46226 38.0034 6.14664C36.9477 5.83103 35.8284 6.40633 35.5035 7.43163C35.1785 8.45692 35.7708 9.54394 36.8265 9.85956C37.8822 10.1752 39.0014 9.59987 39.3264 8.57458Z" fill="#E58325"/>
<path d="M27.02 28.7914L33.7 28.8108L33.25 29.1726C32.985 29.3863 32.9475 29.7699 33.1675 30.0273C33.2925 30.173 33.47 30.2482 33.65 30.2482C33.79 30.2482 33.9325 30.2021 34.0475 30.1098L35.865 28.6482C36.13 28.4345 36.1675 28.0509 35.9475 27.7935C35.9475 27.7911 35.9425 27.7886 35.94 27.7862C35.9075 27.7425 35.87 27.7012 35.8225 27.6672L33.955 26.2663C33.6825 26.0599 33.29 26.1109 33.0775 26.3755C32.8675 26.6402 32.9175 27.0214 33.19 27.2278L33.6875 27.6017L27.0225 27.5822C26.6775 27.5822 26.3975 27.8518 26.3975 28.1868C26.3975 28.5219 26.675 28.7938 27.02 28.7963V28.7914Z" fill="white"/>
<path d="M28.6099 33.2953L28.1124 32.9213L34.7774 32.9408C35.1224 32.9408 35.4024 32.6713 35.4024 32.3362C35.4024 32.0011 35.1249 31.7292 34.7799 31.7268L28.0999 31.7073L28.5499 31.3456C28.8149 31.1319 28.8524 30.7483 28.6324 30.4909C28.4124 30.2335 28.0174 30.1971 27.7524 30.4108L25.9349 31.8724C25.6699 32.0861 25.6324 32.4697 25.8524 32.7271C25.8524 32.7295 25.8574 32.732 25.8599 32.7344C25.8924 32.7781 25.9299 32.8194 25.9774 32.8534L27.8449 34.2543C27.9599 34.3393 28.0924 34.3806 28.2274 34.3806C28.4149 34.3806 28.5999 34.3005 28.7224 34.1451C28.9324 33.8804 28.8824 33.4992 28.6099 33.2928V33.2953Z" fill="white"/>
<path d="M4.65304 33.0355C4.74804 33.0865 4.85304 33.1108 4.95554 33.1108C5.17554 33.1108 5.38804 32.9991 5.50304 32.7976L13.948 18.0327L25.593 20.7375C25.643 20.7497 25.6905 20.7545 25.738 20.7545C25.798 20.7545 25.8555 20.7448 25.9105 20.7278C25.9255 20.7278 25.938 20.7327 25.953 20.7327C26.123 20.7327 26.2905 20.6671 26.413 20.536L34.7055 11.766C34.938 11.5183 34.923 11.1347 34.668 10.9089C34.413 10.6806 34.018 10.6976 33.7855 10.9453L25.6855 19.5114L13.7755 16.7434C13.763 16.741 13.7505 16.741 13.738 16.7386C13.7155 16.7361 13.6955 16.7313 13.673 16.7313C13.6505 16.7313 13.6305 16.7313 13.608 16.7313C13.5905 16.7313 13.573 16.7313 13.5555 16.7337C13.5305 16.7361 13.508 16.741 13.4855 16.7459C13.4705 16.7483 13.4555 16.7531 13.4405 16.758C13.418 16.7653 13.3955 16.775 13.373 16.7847C13.358 16.792 13.3455 16.7968 13.3305 16.8041C13.3105 16.8163 13.2905 16.8284 13.2705 16.8405C13.258 16.8503 13.243 16.86 13.2305 16.8697C13.213 16.8843 13.1955 16.9012 13.178 16.9182C13.1655 16.9304 13.1555 16.9425 13.1455 16.9547C13.1305 16.9741 13.1155 16.9935 13.103 17.0129C13.098 17.0226 13.0905 17.0299 13.083 17.0396L4.40804 32.2076C4.24054 32.5014 4.34804 32.8704 4.65054 33.0331L4.65304 33.0355Z" fill="white"/>
<path d="M39.0003 37.2968H35.4353C37.8453 35.8254 39.4528 33.2225 39.4528 30.2579C39.4528 25.6762 35.6153 21.9492 30.8978 21.9492C26.1803 21.9492 22.3453 25.6762 22.3453 30.2579C22.3453 33.2225 23.9528 35.8254 26.3628 37.2968H1.75027L1.71777 1.0948C1.71777 0.759733 1.43777 0.487793 1.09277 0.487793C0.747773 0.487793 0.467773 0.759733 0.467773 1.0948L0.500273 37.8577C0.500273 38.115 0.667773 38.3336 0.900273 38.421C0.995273 38.4768 1.10277 38.5084 1.22027 38.5084H29.9328C30.2503 38.5424 30.5728 38.5642 30.9003 38.5642C31.2278 38.5642 31.5503 38.5448 31.8678 38.5084H39.0003C39.3453 38.5084 39.6253 38.2364 39.6253 37.9014C39.6253 37.5663 39.3453 37.2944 39.0003 37.2944V37.2968ZM23.5953 30.2579C23.5953 26.3464 26.8728 23.1632 30.8978 23.1632C34.9228 23.1632 38.2028 26.3464 38.2028 30.2579C38.2028 33.8757 35.3978 36.867 31.7903 37.2968H30.0078C26.4003 36.867 23.5953 33.8757 23.5953 30.2579Z" fill="white"/>
</g>
<defs>
<clipPath id="clip0_249_7248">
<rect width="40" height="38.8485" fill="white"/>
</clipPath>
</defs>
</svg>
