<svg width="60" height="60" viewBox="0 0 60 60" fill="none" xmlns="http://www.w3.org/2000/svg">
<path d="M58.875 32.6736C57.7988 30.6448 55.3763 29.9511 53.2463 31.0611C51.9713 31.7248 50.7 32.3961 49.425 33.0636L47.6588 33.9898C47.6063 34.0161 47.5538 34.0423 47.5013 34.0686C47.3738 34.1323 47.25 34.1961 47.13 34.2711C46.6388 34.5861 46.4813 35.1261 46.7363 35.6136C46.9913 36.0936 47.535 36.2811 48.0563 36.0636C48.1538 36.0223 48.2513 35.9698 48.345 35.9211L50.2125 34.9386C51.5663 34.2261 52.9163 33.5173 54.2738 32.8161C55.335 32.2686 56.5388 32.6173 57.0788 33.6261C57.3375 34.1098 57.3938 34.6573 57.24 35.1636C57.0788 35.6886 56.7038 36.1311 56.1863 36.4086C51.1725 39.0748 46.155 41.7336 41.1375 44.3923L39.6113 45.2023C39.0375 45.5061 38.4525 45.5323 37.8225 45.2811C35.97 44.5423 34.1138 43.8111 32.2575 43.0761C29.775 42.0936 27.2888 41.1148 24.81 40.1211C23.52 39.6073 22.305 39.6748 21.09 40.3386C20.9138 40.4361 20.7338 40.5298 20.5388 40.6348L20.37 40.7248L15.735 32.0398C16.4213 31.6723 17.1038 31.3048 17.7825 30.9373C19.5638 29.9773 21.2438 29.0698 22.9838 28.1848C24.0638 27.6373 25.2263 27.6261 26.4338 28.1548C28.2863 28.9686 30.1425 29.7711 31.995 30.5773L36.3975 32.4861C38.0925 33.2211 39.7838 33.9561 41.475 34.6948C42.4613 35.1261 42.9938 36.0411 42.7988 36.9711C42.6713 37.5748 42.3263 38.0586 41.82 38.3361C41.2763 38.6323 40.6163 38.6548 39.96 38.4036L37.4475 37.4436C35.64 36.7498 33.8325 36.0598 32.025 35.3698C31.3913 35.1298 30.8175 35.3436 30.5963 35.9061C30.4988 36.1573 30.4988 36.4273 30.6038 36.6598C30.7163 36.9148 30.9488 37.1211 31.2525 37.2411C31.9013 37.4923 32.55 37.7436 33.2025 37.9948C35.2763 38.7973 37.4175 39.6298 39.5438 40.3986C41.5838 41.1373 43.86 40.0648 44.6175 38.0061C45.3825 35.9286 44.3888 33.7461 42.2588 32.8161C40.5713 32.0811 38.88 31.3498 37.1925 30.6186C34.0013 29.2348 30.7013 27.8061 27.465 26.3736C25.44 25.4773 23.4863 25.5636 21.495 26.6361C19.5263 27.6973 17.5575 28.7548 15.5888 29.8086L15.0938 30.0748C15.0075 30.1198 14.9175 30.1611 14.8163 30.2023L14.7713 30.2211L14.685 30.0598C14.5838 29.8686 14.49 29.6848 14.3925 29.5048C13.9913 28.7698 13.485 28.6161 12.75 28.9986C11.865 29.4598 10.9838 29.9286 10.1025 30.4011C9.89253 30.5136 9.73503 30.6486 9.61878 30.7986L3.16128 34.3498C1.02753 35.5236 0.0750274 37.8936 1.03503 39.6411L6.17628 48.9936C6.65628 49.8673 7.56003 50.4636 8.65878 50.6361C8.87628 50.6698 9.10128 50.6848 9.32628 50.6848C10.1513 50.6848 11.0025 50.4598 11.7863 50.0323L18.3638 46.4173C18.4575 46.3948 18.555 46.3611 18.6488 46.3123C19.5825 45.8248 20.5013 45.3298 21.3825 44.8386C21.9375 44.5273 22.095 44.0136 21.8138 43.4286C21.7013 43.1961 21.5813 42.9673 21.4575 42.7386L21.3525 42.5398C22.4025 41.8011 23.3213 41.6811 24.4125 42.1311C26.8763 43.1473 29.3963 44.1373 31.8338 45.0936C33.5475 45.7686 35.2613 46.4398 36.9713 47.1261C37.5338 47.3511 38.085 47.4636 38.6325 47.4636C39.3375 47.4636 40.0313 47.2761 40.7363 46.9048C43.9238 45.2098 47.1113 43.5223 50.2988 41.8311C52.5413 40.6423 54.7875 39.4536 57.03 38.2611C59.175 37.1211 59.97 34.7173 58.8825 32.6623L58.875 32.6736ZM10.8788 48.4011C10.2563 48.7423 9.55128 48.8886 8.94378 48.7948C8.64003 48.7498 8.08878 48.5961 7.81878 48.1048L2.67753 38.7523C2.22378 37.9273 2.86128 36.6711 4.06503 36.0073L10.7213 32.3473C10.83 32.3173 10.935 32.2761 11.0475 32.2198C11.5125 31.9798 11.97 31.7323 12.4463 31.4811L12.9788 31.1961L19.5563 43.5261L19.0425 43.7998C18.5738 44.0473 18.1313 44.2836 17.6888 44.5273C17.5163 44.6211 17.3813 44.7448 17.2838 44.8836L10.8825 48.4048L10.8788 48.4011Z" fill="white"/>
<path d="M42.7722 27.1836C48.4872 27.1836 53.1372 22.5336 53.1372 16.8186C53.1372 11.1036 48.4872 6.45361 42.7722 6.45361C37.0572 6.45361 32.4072 11.1036 32.4072 16.8186C32.4072 22.5336 37.0572 27.1836 42.7722 27.1836ZM37.1547 23.1749C38.2422 21.3524 40.451 20.1936 42.9072 20.1936C45.3635 20.1936 47.441 21.2924 48.5622 23.0211C47.0435 24.4386 45.011 25.3086 42.776 25.3086C40.541 25.3086 38.6547 24.5024 37.1585 23.1749H37.1547ZM42.7722 8.32861C47.4522 8.32861 51.2622 12.1386 51.2622 16.8186C51.2622 18.5699 50.7297 20.1974 49.8185 21.5511C48.2922 19.5374 45.7347 18.3224 42.9072 18.3224C40.0797 18.3224 37.361 19.6349 35.861 21.7386C34.871 20.3511 34.286 18.6524 34.286 16.8224C34.286 12.1424 38.096 8.33236 42.776 8.33236L42.7722 8.32861Z" fill="white"/>
<path d="M42.9304 17.771C44.9779 17.771 46.6392 16.106 46.6392 14.0623C46.6392 12.0185 44.9742 10.3535 42.9304 10.3535C40.8867 10.3535 39.2217 12.0185 39.2217 14.0623C39.2217 16.106 40.8867 17.771 42.9304 17.771ZM42.9304 12.2248C43.9429 12.2248 44.7642 13.0498 44.7642 14.0585C44.7642 15.0673 43.9392 15.8923 42.9304 15.8923C41.9217 15.8923 41.0967 15.0673 41.0967 14.0585C41.0967 13.0498 41.9217 12.2248 42.9304 12.2248Z" fill="white"/>
<path d="M11.5078 43.019C13.1437 42.7563 14.257 41.2173 13.9944 39.5814C13.7318 37.9455 12.1927 36.8322 10.5568 37.0948C8.92089 37.3574 7.80762 38.8965 8.07023 40.5324C8.33285 42.1683 9.87191 43.2816 11.5078 43.019Z" fill="#E58325"/>
</svg>
