<svg width="192" height="101" viewBox="0 0 192 101" fill="none" xmlns="http://www.w3.org/2000/svg">
<g opacity="0.19" filter="url(#filter0_d_249_7461)">
<path d="M105.125 90.2607C127.256 90.2607 145.197 72.3241 145.197 50.1982C145.197 28.0723 127.256 10.1357 105.125 10.1357C82.993 10.1357 65.0518 28.0723 65.0518 50.1982C65.0518 72.3241 82.993 90.2607 105.125 90.2607Z" fill="#85C7AD"/>
</g>
<g opacity="0.19" filter="url(#filter1_d_249_7461)">
<path d="M123.241 90.2607C145.372 90.2607 163.314 72.3241 163.314 50.1982C163.314 28.0723 145.372 10.1357 123.241 10.1357C101.109 10.1357 83.168 28.0723 83.168 50.1982C83.168 72.3241 101.109 90.2607 123.241 90.2607Z" fill="#85C7AD"/>
</g>
<g opacity="0.14" filter="url(#filter2_d_249_7461)">
<path d="M141.352 90.2607C163.484 90.2607 181.425 72.3241 181.425 50.1982C181.425 28.0723 163.484 10.1357 141.352 10.1357C119.221 10.1357 101.279 28.0723 101.279 50.1982C101.279 72.3241 119.221 90.2607 141.352 90.2607Z" fill="#85C7AD"/>
</g>
<g opacity="0.32" filter="url(#filter3_d_249_7461)">
<path d="M87.0123 90.2607C109.144 90.2607 127.085 72.3241 127.085 50.1982C127.085 28.0723 109.144 10.1357 87.0123 10.1357C64.8807 10.1357 46.9395 28.0723 46.9395 50.1982C46.9395 72.3241 64.8807 90.2607 87.0123 90.2607Z" fill="#85C7AD"/>
</g>
<g opacity="0.52" filter="url(#filter4_d_249_7461)">
<path d="M68.8961 90.2607C91.0277 90.2607 108.969 72.3241 108.969 50.1982C108.969 28.0723 91.0277 10.1357 68.8961 10.1357C46.7644 10.1357 28.8232 28.0723 28.8232 50.1982C28.8232 72.3241 46.7644 90.2607 68.8961 90.2607Z" fill="#85C7AD"/>
</g>
<g filter="url(#filter5_d_249_7461)">
<path d="M50.7847 90.2607C72.9163 90.2607 90.8575 72.3241 90.8575 50.1982C90.8575 28.0723 72.9163 10.1357 50.7847 10.1357C28.6531 10.1357 10.7119 28.0723 10.7119 50.1982C10.7119 72.3241 28.6531 90.2607 50.7847 90.2607Z" fill="#85C7AD"/>
</g>
<defs>
<filter id="filter0_d_249_7461" x="55.0518" y="0.135742" width="100.146" height="100.125" filterUnits="userSpaceOnUse" color-interpolation-filters="sRGB">
<feFlood flood-opacity="0" result="BackgroundImageFix"/>
<feColorMatrix in="SourceAlpha" type="matrix" values="0 0 0 0 0 0 0 0 0 0 0 0 0 0 0 0 0 0 127 0" result="hardAlpha"/>
<feOffset/>
<feGaussianBlur stdDeviation="5"/>
<feColorMatrix type="matrix" values="0 0 0 0 0 0 0 0 0 0 0 0 0 0 0 0 0 0 0.55 0"/>
<feBlend mode="normal" in2="BackgroundImageFix" result="effect1_dropShadow_249_7461"/>
<feBlend mode="normal" in="SourceGraphic" in2="effect1_dropShadow_249_7461" result="shape"/>
</filter>
<filter id="filter1_d_249_7461" x="73.168" y="0.135742" width="100.146" height="100.125" filterUnits="userSpaceOnUse" color-interpolation-filters="sRGB">
<feFlood flood-opacity="0" result="BackgroundImageFix"/>
<feColorMatrix in="SourceAlpha" type="matrix" values="0 0 0 0 0 0 0 0 0 0 0 0 0 0 0 0 0 0 127 0" result="hardAlpha"/>
<feOffset/>
<feGaussianBlur stdDeviation="5"/>
<feColorMatrix type="matrix" values="0 0 0 0 0 0 0 0 0 0 0 0 0 0 0 0 0 0 0.55 0"/>
<feBlend mode="normal" in2="BackgroundImageFix" result="effect1_dropShadow_249_7461"/>
<feBlend mode="normal" in="SourceGraphic" in2="effect1_dropShadow_249_7461" result="shape"/>
</filter>
<filter id="filter2_d_249_7461" x="91.2793" y="0.135742" width="100.146" height="100.125" filterUnits="userSpaceOnUse" color-interpolation-filters="sRGB">
<feFlood flood-opacity="0" result="BackgroundImageFix"/>
<feColorMatrix in="SourceAlpha" type="matrix" values="0 0 0 0 0 0 0 0 0 0 0 0 0 0 0 0 0 0 127 0" result="hardAlpha"/>
<feOffset/>
<feGaussianBlur stdDeviation="5"/>
<feColorMatrix type="matrix" values="0 0 0 0 0 0 0 0 0 0 0 0 0 0 0 0 0 0 0.55 0"/>
<feBlend mode="normal" in2="BackgroundImageFix" result="effect1_dropShadow_249_7461"/>
<feBlend mode="normal" in="SourceGraphic" in2="effect1_dropShadow_249_7461" result="shape"/>
</filter>
<filter id="filter3_d_249_7461" x="36.9395" y="0.135742" width="100.146" height="100.125" filterUnits="userSpaceOnUse" color-interpolation-filters="sRGB">
<feFlood flood-opacity="0" result="BackgroundImageFix"/>
<feColorMatrix in="SourceAlpha" type="matrix" values="0 0 0 0 0 0 0 0 0 0 0 0 0 0 0 0 0 0 127 0" result="hardAlpha"/>
<feOffset/>
<feGaussianBlur stdDeviation="5"/>
<feColorMatrix type="matrix" values="0 0 0 0 0 0 0 0 0 0 0 0 0 0 0 0 0 0 0.55 0"/>
<feBlend mode="normal" in2="BackgroundImageFix" result="effect1_dropShadow_249_7461"/>
<feBlend mode="normal" in="SourceGraphic" in2="effect1_dropShadow_249_7461" result="shape"/>
</filter>
<filter id="filter4_d_249_7461" x="18.8232" y="0.135742" width="100.146" height="100.125" filterUnits="userSpaceOnUse" color-interpolation-filters="sRGB">
<feFlood flood-opacity="0" result="BackgroundImageFix"/>
<feColorMatrix in="SourceAlpha" type="matrix" values="0 0 0 0 0 0 0 0 0 0 0 0 0 0 0 0 0 0 127 0" result="hardAlpha"/>
<feOffset/>
<feGaussianBlur stdDeviation="5"/>
<feColorMatrix type="matrix" values="0 0 0 0 0 0 0 0 0 0 0 0 0 0 0 0 0 0 0.55 0"/>
<feBlend mode="normal" in2="BackgroundImageFix" result="effect1_dropShadow_249_7461"/>
<feBlend mode="normal" in="SourceGraphic" in2="effect1_dropShadow_249_7461" result="shape"/>
</filter>
<filter id="filter5_d_249_7461" x="0.711914" y="0.135742" width="100.146" height="100.125" filterUnits="userSpaceOnUse" color-interpolation-filters="sRGB">
<feFlood flood-opacity="0" result="BackgroundImageFix"/>
<feColorMatrix in="SourceAlpha" type="matrix" values="0 0 0 0 0 0 0 0 0 0 0 0 0 0 0 0 0 0 127 0" result="hardAlpha"/>
<feOffset/>
<feGaussianBlur stdDeviation="5"/>
<feColorMatrix type="matrix" values="0 0 0 0 0 0 0 0 0 0 0 0 0 0 0 0 0 0 0.55 0"/>
<feBlend mode="normal" in2="BackgroundImageFix" result="effect1_dropShadow_249_7461"/>
<feBlend mode="normal" in="SourceGraphic" in2="effect1_dropShadow_249_7461" result="shape"/>
</filter>
</defs>
</svg>
