<svg width="178" height="36" viewBox="0 0 178 36" fill="none" xmlns="http://www.w3.org/2000/svg">
<path d="M66.9869 27.1371C67.0239 27.8587 67.3271 28.541 67.8381 29.052C68.349 29.5629 69.0313 29.8662 69.7529 29.9031H70.7409C70.9327 29.9015 71.1162 29.8246 71.2518 29.689C71.3875 29.5534 71.4643 29.3699 71.4659 29.1781V7.37809C71.4637 7.28652 71.443 7.19636 71.4049 7.11304C71.3668 7.02973 71.3123 6.95501 71.2445 6.8934C71.1767 6.83179 71.0971 6.78458 71.0106 6.75462C70.924 6.72466 70.8323 6.71257 70.7409 6.71909H67.6409C67.4591 6.7167 67.2831 6.7834 67.1486 6.90572C67.014 7.02804 66.9308 7.19686 66.9159 7.37809V9.15609C65.9329 8.06471 64.7213 7.20364 63.3673 6.63426C62.0134 6.06489 60.5505 5.80123 59.0829 5.86209C57.4613 5.84621 55.8527 6.15244 54.3503 6.76302C52.8479 7.37361 51.4817 8.2764 50.331 9.41903C49.1802 10.5617 48.2677 11.9214 47.6465 13.4194C47.0252 14.9174 46.7076 16.5238 46.712 18.1455C46.7163 19.7672 47.0426 21.3719 47.6719 22.8665C48.3012 24.3611 49.221 25.7159 50.3779 26.8524C51.5348 27.9888 52.9059 28.8842 54.4115 29.4867C55.9171 30.0892 57.5274 30.3867 59.1489 30.3621C62.1129 30.3621 65.3409 29.2421 66.9869 27.1351V27.1371ZM59.1489 26.0831C57.5642 26.1229 56.0036 25.6893 54.6665 24.8377C53.3295 23.9862 52.2766 22.7554 51.6425 21.3025C51.0084 19.8497 50.8218 18.2407 51.1066 16.6813C51.3914 15.1219 52.1347 13.6828 53.2414 12.5479C54.3481 11.413 55.7681 10.6338 57.3199 10.3098C58.8716 9.98589 60.4847 10.1319 61.9531 10.7293C63.4214 11.3267 64.6783 12.3482 65.5632 13.6635C66.4481 14.9787 66.9208 16.5279 66.9209 18.1131C66.9468 20.2005 66.1426 22.2127 64.6852 23.7073C63.2277 25.2019 61.2363 26.0565 59.1489 26.0831Z" fill="#143A33"/>
<path d="M117.047 27.1373C117.084 27.8589 117.387 28.5412 117.898 29.0522C118.409 29.5631 119.091 29.8664 119.813 29.9033H120.801C120.993 29.9017 121.176 29.8249 121.312 29.6892C121.447 29.5536 121.524 29.3701 121.526 29.1783V7.37831C121.524 7.28674 121.503 7.19657 121.465 7.11326C121.427 7.02995 121.372 6.95523 121.304 6.89362C121.237 6.83201 121.157 6.7848 121.07 6.75483C120.984 6.72487 120.892 6.71279 120.801 6.71931H117.771C117.589 6.71692 117.413 6.78362 117.278 6.90593C117.144 7.02825 117.061 7.19707 117.046 7.37831V9.15631C116.062 8.06444 114.85 7.20316 113.495 6.63394C112.14 6.06471 110.676 5.80157 109.208 5.86331C105.986 5.90447 102.91 7.21321 100.646 9.50606C98.3826 11.7989 97.1133 14.8913 97.1133 18.1133C97.1133 21.3354 98.3826 24.4277 100.646 26.7206C102.91 29.0134 105.986 30.3221 109.208 30.3633C112.238 30.3633 115.465 29.2433 117.046 27.1363L117.047 27.1373ZM109.275 26.0833C107.69 26.1231 106.129 25.6895 104.792 24.838C103.455 23.9864 102.402 22.7556 101.768 21.3027C101.134 19.8499 100.948 18.241 101.232 16.6815C101.517 15.1221 102.261 13.683 103.367 12.5481C104.474 11.4132 105.894 10.634 107.446 10.31C108.997 9.9861 110.611 10.1321 112.079 10.7295C113.547 11.3269 114.804 12.3484 115.689 13.6637C116.574 14.9789 117.047 16.5281 117.047 18.1133C117.073 20.2009 116.268 22.2133 114.811 23.7079C113.353 25.2025 111.361 26.0569 109.274 26.0833H109.275Z" fill="#143A33"/>
<path d="M173.099 27.1373C173.136 27.8589 173.439 28.5412 173.95 29.0522C174.461 29.5631 175.143 29.8664 175.865 29.9033H176.853C177.045 29.9017 177.228 29.8249 177.364 29.6892C177.499 29.5536 177.576 29.3701 177.578 29.1783V7.37831C177.576 7.28674 177.555 7.19657 177.517 7.11326C177.479 7.02995 177.424 6.95523 177.356 6.89362C177.289 6.83201 177.209 6.7848 177.122 6.75483C177.036 6.72487 176.944 6.71279 176.853 6.71931H173.753C173.571 6.71692 173.395 6.78362 173.26 6.90593C173.126 7.02825 173.043 7.19707 173.028 7.37831V9.15631C172.044 8.06444 170.832 7.20316 169.477 6.63394C168.122 6.06471 166.658 5.80157 165.19 5.86331C163.568 5.84258 161.958 6.14413 160.454 6.75045C158.949 7.35677 157.58 8.2558 156.426 9.39538C155.272 10.5349 154.355 11.8924 153.73 13.3889C153.104 14.8855 152.782 16.4913 152.782 18.1133C152.782 19.7353 153.104 21.3412 153.73 22.8377C154.355 24.3342 155.272 25.6917 156.426 26.8312C157.58 27.9708 158.949 28.8698 160.454 29.4762C161.958 30.0825 163.568 30.384 165.19 30.3633C168.22 30.3633 171.447 29.2433 173.09 27.1363L173.099 27.1373ZM165.261 26.0833C163.676 26.1231 162.115 25.6895 160.778 24.838C159.441 23.9864 158.388 22.7556 157.754 21.3027C157.12 19.8499 156.934 18.241 157.218 16.6815C157.503 15.1221 158.247 13.683 159.353 12.5481C160.46 11.4132 161.88 10.634 163.432 10.31C164.983 9.9861 166.597 10.1321 168.065 10.7295C169.533 11.3269 170.79 12.3484 171.675 13.6637C172.56 14.9789 173.033 16.5281 173.033 18.1133C173.059 20.2007 172.254 22.213 170.797 23.7075C169.34 25.2021 167.348 26.0567 165.261 26.0833Z" fill="#143A33"/>
<path d="M149.124 27.8617V16.5987C149.124 10.2097 145.106 5.92773 138.717 5.92773C135.687 5.92773 132.855 7.70573 132.262 9.22073C132.247 8.87705 132.162 8.54005 132.013 8.22982C131.864 7.91959 131.655 7.6425 131.397 7.41506C131.138 7.18763 130.837 7.01452 130.511 6.90605C130.184 6.79758 129.839 6.75598 129.496 6.78373H128.508C128.316 6.7853 128.133 6.86219 127.997 6.99782C127.862 7.13344 127.785 7.31694 127.783 7.50873V27.2027V29.3767C127.785 29.4683 127.806 29.5585 127.844 29.6418C127.882 29.7251 127.937 29.7998 128.005 29.8614C128.072 29.923 128.152 29.9702 128.239 30.0002C128.325 30.0302 128.417 30.0423 128.508 30.0357H131.867C131.876 30.0359 131.885 30.0343 131.893 30.031C131.901 30.0277 131.908 30.0229 131.914 30.0167C131.92 30.0105 131.925 30.0032 131.928 29.9951C131.932 29.9871 131.933 29.9784 131.933 29.9697H131.999L132.065 29.9037L132.131 29.8377C132.205 29.7162 132.25 29.5794 132.263 29.4377V16.4007C132.284 14.7723 132.945 13.2175 134.104 12.0733C135.263 10.929 136.826 10.2874 138.455 10.2874C140.083 10.2874 141.646 10.929 142.805 12.0733C143.964 13.2175 144.626 14.7723 144.646 16.4007V27.2007V29.3087C144.648 29.4003 144.669 29.4905 144.707 29.5738C144.745 29.6571 144.8 29.7318 144.868 29.7934C144.935 29.855 145.015 29.9022 145.102 29.9322C145.188 29.9622 145.28 29.9743 145.371 29.9677H148.73C148.739 29.9679 148.748 29.9663 148.756 29.963C148.764 29.9597 148.771 29.9549 148.777 29.9487C148.783 29.9426 148.788 29.9352 148.791 29.9271C148.795 29.9191 148.796 29.9104 148.796 29.9017H148.862L148.928 29.8357L148.994 29.7697C149.068 29.6482 149.113 29.5114 149.126 29.3697V27.8617H149.124Z" fill="#143A33"/>
<path d="M78.7779 23.9758C80.6562 25.3362 82.9138 26.0734 85.2329 26.0838C87.2749 26.0838 89.3829 25.0298 89.3829 23.1838C89.3829 20.6838 84.7719 20.3518 81.8739 19.3638C78.9759 18.3758 76.4739 16.3338 76.4739 13.0408C76.4739 7.96879 80.9529 5.92679 85.1689 5.92679C87.7156 5.9213 90.2094 6.65346 92.3489 8.03479C92.5115 8.134 92.6295 8.29205 92.6785 8.47607C92.7275 8.66008 92.7037 8.8559 92.6119 9.02279L90.8989 11.4598C90.854 11.5452 90.7907 11.6196 90.7135 11.6775C90.6362 11.7354 90.5471 11.7754 90.4525 11.7946C90.3579 11.8137 90.2602 11.8116 90.1665 11.7883C90.0728 11.7649 89.9855 11.7211 89.9109 11.6598C88.5122 10.7024 86.8637 10.1757 85.1689 10.1448C82.5999 10.1448 81.0849 11.3308 81.0849 12.7798C81.0849 14.5578 83.0609 15.0848 85.4319 15.6798C89.5159 16.7998 93.9949 18.1168 93.9949 23.1228C93.9949 27.6018 89.8449 30.3028 85.2349 30.3028C82.0193 30.3655 78.8721 29.3705 76.2769 27.4708C76.1289 27.3569 76.0319 27.1891 76.0072 27.004C75.9825 26.8189 76.032 26.6315 76.1449 26.4828L77.8579 24.0458C77.9776 23.9261 78.1362 23.8532 78.305 23.8403C78.4738 23.8275 78.6415 23.8756 78.7779 23.9758Z" fill="#143A33"/>
<mask id="mask0_249_7678" style="mask-type:luminance" maskUnits="userSpaceOnUse" x="0" y="0" width="39" height="36">
<path d="M27.6 8.365C27.6 10.0194 27.1095 11.6366 26.1904 13.0121C25.2713 14.3877 23.965 15.4599 22.4366 16.0931C20.9082 16.7262 19.2264 16.892 17.6038 16.5694C15.9812 16.2468 14.4907 15.4503 13.3208 14.2807C12.1508 13.111 11.354 11.6207 11.031 9.99816C10.708 8.37564 10.8734 6.69378 11.5062 5.16524C12.139 3.6367 13.2108 2.33013 14.5862 1.41073C15.9616 0.49133 17.5786 0.000395542 19.233 0C21.4509 0.00264534 23.5772 0.884741 25.1457 2.45285C26.7142 4.02096 27.5968 6.14709 27.6 8.365ZM8.365 18.772C6.71056 18.772 5.09328 19.2626 3.71766 20.1818C2.34204 21.1009 1.26988 22.4074 0.636752 23.9359C0.00362474 25.4644 -0.162031 27.1463 0.160735 28.7689C0.4835 30.3916 1.28019 31.8821 2.45006 33.0519C3.61992 34.2218 5.11042 35.0185 6.73307 35.3413C8.35572 35.664 10.0376 35.4984 11.5662 34.8652C13.0947 34.2321 14.4011 33.16 15.3202 31.7843C16.2394 30.4087 16.73 28.7914 16.73 27.137C16.7268 24.9194 15.8445 22.7936 14.2764 21.2256C12.7084 19.6575 10.5826 18.7752 8.365 18.772ZM30.101 18.772C28.4466 18.772 26.8293 19.2626 25.4537 20.1818C24.078 21.1009 23.0059 22.4074 22.3728 23.9359C21.7396 25.4644 21.574 27.1463 21.8967 28.7689C22.2195 30.3916 23.0162 31.8821 24.1861 33.0519C25.3559 34.2218 26.8464 35.0185 28.4691 35.3413C30.0917 35.664 31.7736 35.4984 33.3022 34.8652C34.8307 34.2321 36.1371 33.16 37.0562 31.7843C37.9754 30.4087 38.466 28.7914 38.466 27.137C38.4628 24.9193 37.5804 22.7933 36.0121 21.2252C34.4438 19.6571 32.3187 18.7749 30.101 18.772Z" fill="white"/>
</mask>
<g mask="url(#mask0_249_7678)">
<path d="M19.2343 -0.394519C23.4031 -0.394519 27.4783 0.841685 30.9446 3.15776C34.4108 5.47385 37.1125 8.76578 38.7078 12.6173C40.3031 16.4688 40.7206 20.7069 39.9073 24.7956C39.094 28.8843 37.0865 32.6401 34.1387 35.5879C31.1908 38.5357 27.4351 40.5432 23.3464 41.3565C19.2576 42.1698 15.0196 41.7524 11.1681 40.157C7.31656 38.5617 4.02463 35.8601 1.70855 32.3938C-0.607534 28.9275 -1.84374 24.8523 -1.84374 20.6835C-1.84676 17.9146 -1.30363 15.1724 -0.245434 12.6137C0.812763 10.055 2.36524 7.73021 4.32312 5.77234C6.28099 3.81446 8.60582 2.26198 11.1645 1.20378C13.7232 0.145588 16.4654 -0.397545 19.2343 -0.394519Z" fill="#143A33"/>
</g>
</svg>
