<svg width="176" height="56" viewBox="0 0 176 56" fill="none" xmlns="http://www.w3.org/2000/svg">
<path fill-rule="evenodd" clip-rule="evenodd" d="M0.890625 3.22852V53.2215H24.8076C35.3246 53.2215 48.7946 46.5215 48.7946 28.1955C48.7946 8.15753 33.1386 3.22852 18.8316 3.22852H0.890625ZM18.5626 18.6725H21.6406C26.4716 18.6725 30.5876 22.8395 30.6516 28.4425C30.6516 28.4425 30.6516 28.4505 30.6516 28.4545C30.5876 34.0545 26.9146 38.2125 22.0836 38.2125H18.5626V18.6725Z" fill="#143A33"/>
<path fill-rule="evenodd" clip-rule="evenodd" d="M105.433 3.22852V53.2285H138.533V37.4165H122.947V3.22852H105.433Z" fill="#143A33"/>
<path fill-rule="evenodd" clip-rule="evenodd" d="M89.7067 10.8191L65.2487 26.2371L60.9887 23.3721H60.9987L86.0117 7.44208L86.0587 7.47507L74.6207 0.205078L31.0557 27.9121L74.8427 55.5461L118.107 27.9801L105.579 20.3311L80.6397 36.0441L76.4467 33.1871L100.686 17.7871L89.7067 10.8191Z" fill="#143A33"/>
<path fill-rule="evenodd" clip-rule="evenodd" d="M141.686 3.22461V53.1666H174.786V37.4166H159.201V3.22461H141.686Z" fill="#143A33"/>
<path fill-rule="evenodd" clip-rule="evenodd" d="M167.891 3.14648H170.834V3.84648H169.752V7.01147H168.973V3.84648H167.891V3.14648Z" fill="#143A33"/>
<path fill-rule="evenodd" clip-rule="evenodd" d="M172.887 6.55641L171.944 4.21941V6.97942H171.218V3.14941H172.418L173.242 5.47942L174.066 3.14941H175.266V6.97942H174.533V4.21941L173.59 6.55641H172.887Z" fill="#143A33"/>
</svg>
