<svg width="170" height="38" viewBox="0 0 170 38" fill="none" xmlns="http://www.w3.org/2000/svg">
<mask id="mask0_249_7648" style="mask-type:luminance" maskUnits="userSpaceOnUse" x="0" y="0" width="170" height="38">
<path d="M169.463 0H0.714844V37.921H169.463V0Z" fill="white"/>
</mask>
<g mask="url(#mask0_249_7648)">
<path fill-rule="evenodd" clip-rule="evenodd" d="M63.7448 10.9161C65.3358 12.507 66.4193 14.534 66.8582 16.7408C67.2972 18.9475 67.0719 21.2348 66.2109 23.3135C65.3499 25.3922 63.8918 27.1689 62.021 28.419C60.1502 29.669 57.9508 30.3362 55.7008 30.3362C53.4509 30.3362 51.2514 29.669 49.3807 28.419C47.5099 27.1689 46.0518 25.3922 45.1908 23.3135C44.3298 21.2348 44.1045 18.9475 44.5434 16.7408C44.9824 14.534 46.0659 12.507 47.6568 10.9161C49.7903 8.7827 52.6838 7.58417 55.7008 7.58417C58.7179 7.58417 61.6114 8.7827 63.7448 10.9161ZM55.7148 7.99838e-05C60.7423 0.00326192 65.5627 2.00306 69.116 5.5597C72.6692 9.11634 74.6644 13.9386 74.6628 18.9661C74.6612 23.9935 72.663 28.8146 69.1075 32.3689C65.5519 35.9233 60.7303 37.9201 55.7028 37.9201C50.6754 37.9201 45.8537 35.9233 42.2982 32.3689C38.7427 28.8146 36.7444 23.9935 36.7428 18.9661C36.7413 13.9386 38.7365 9.11634 42.2897 5.5597C45.843 2.00306 50.6634 0.00326192 55.6908 7.99838e-05H55.7148ZM103.564 10.9161C105.155 12.507 106.238 14.534 106.677 16.7408C107.116 18.9475 106.891 21.2348 106.03 23.3135C105.169 25.3922 103.711 27.1689 101.84 28.419C99.9693 29.669 97.7698 30.3362 95.5198 30.3362C93.2699 30.3362 91.0704 29.669 89.1997 28.419C87.3289 27.1689 85.8708 25.3922 85.0098 23.3135C84.1488 21.2348 83.9235 18.9475 84.3624 16.7408C84.8014 14.534 85.8849 12.507 87.4758 10.9161C89.6093 8.7827 92.5028 7.58417 95.5198 7.58417C98.5369 7.58417 101.43 8.7827 103.564 10.9161ZM108.927 5.55308C112.028 8.65428 113.958 12.7348 114.389 17.0994C114.819 21.4641 113.723 25.843 111.287 29.4902C108.851 33.1375 105.227 35.8274 101.03 37.1019C96.8333 38.3764 92.3247 38.1566 88.272 36.4799C84.2193 34.8032 80.8732 31.7733 78.8038 27.9064C76.7343 24.0395 76.0694 19.5748 76.9224 15.2727C77.7754 10.9706 80.0934 7.09722 83.4817 4.31243C86.87 1.52765 91.119 0.00366651 95.5048 7.99838e-05C97.9967 -0.00156377 100.465 0.488029 102.767 1.44086C105.07 2.39369 107.162 3.79107 108.924 5.55308M8.29884 37.8261L10.1988 37.9211H38.6358L38.5408 36.0271C38.4784 34.5631 37.8693 33.1757 36.8339 32.1389C35.7984 31.1021 34.4118 30.4913 32.9478 30.4271L31.0478 30.3321H13.9868L36.7398 7.58408L36.6448 5.69008C36.6111 4.21651 36.011 2.81256 34.9694 1.76976C33.9277 0.726959 32.5244 0.12543 31.0508 0.09008L29.1558 7.99838e-05H0.714844L0.809844 1.89408C0.878504 3.35562 1.48933 4.73914 2.52311 5.77458C3.55689 6.81001 4.93941 7.42307 6.40084 7.49408L8.30084 7.58908H25.3638L2.61484 30.3371L2.70984 32.2311C2.75959 33.6993 3.36462 35.0939 4.40273 36.1333C5.44085 37.1727 6.83471 37.7795 8.30284 37.8311M138.105 11.3641C138.716 12.5373 139.034 13.8411 139.032 15.1641L139.127 17.0641V30.3371L139.222 32.2311C139.278 33.6984 139.886 35.0906 140.924 36.1289C141.962 37.1672 143.354 37.7752 144.822 37.8311L146.716 37.9261V17.0641L146.811 15.1641C146.811 13.8347 147.132 12.525 147.746 11.3461C148.415 10.1982 149.374 9.24611 150.527 8.58522C151.679 7.92432 152.986 7.57774 154.314 7.58017C155.643 7.5826 156.948 7.93395 158.098 8.59906C159.248 9.26417 160.204 10.2197 160.869 11.3701C161.473 12.5437 161.788 13.8442 161.79 15.1641L161.885 17.0581V30.3371L161.98 32.2311C162.03 33.7004 162.636 35.096 163.675 36.1356C164.715 37.1752 166.11 37.7812 167.58 37.8311L169.474 37.9261V15.1681C169.477 12.084 168.54 9.07222 166.787 6.53433C165.035 3.99645 162.551 2.05302 159.665 0.963131C156.78 -0.126757 153.632 -0.31132 150.639 0.434048C147.646 1.17942 144.952 2.8193 142.915 5.13508C140.476 2.37129 137.115 0.589751 133.459 0.123245C129.802 -0.34326 126.101 0.537169 123.047 2.60008C121.572 0.95908 118.27 7.99838e-05 116.374 7.99838e-05V37.9211L118.274 37.8261C119.747 37.793 121.15 37.1931 122.192 36.1513C123.234 35.1095 123.834 33.706 123.867 32.2331L123.962 30.3331V17.0641L124.057 15.1641C124.057 13.8379 124.376 12.5312 124.987 11.3541C125.655 10.2055 126.612 9.25247 127.764 8.59024C128.916 7.92801 130.221 7.57984 131.55 7.58055C132.878 7.58125 134.184 7.93082 135.335 8.59428C136.486 9.25774 137.442 10.2118 138.109 11.3611" fill="#143A33"/>
</g>
</svg>
